<?xml version="1.0" encoding="UTF-8" standalone="no"?>
<!-- Created with Inkscape (http://www.inkscape.org/) -->

<svg
   xmlns:dc="http://purl.org/dc/elements/1.1/"
   xmlns:cc="http://creativecommons.org/ns#"
   xmlns:rdf="http://www.w3.org/1999/02/22-rdf-syntax-ns#"
   xmlns:svg="http://www.w3.org/2000/svg"
   xmlns="http://www.w3.org/2000/svg"
   xmlns:sodipodi="http://sodipodi.sourceforge.net/DTD/sodipodi-0.dtd"
   xmlns:inkscape="http://www.inkscape.org/namespaces/inkscape"
   width="44.376221mm"
   height="44.103439mm"
   viewBox="0 0 44.376221 44.103439"
   version="1.1"
   id="svg104"
   inkscape:version="0.92.2 (5c3e80d, 2017-08-06)"
   sodipodi:docname="huma_logo.svg">
  <defs
     id="defs98" />
  <sodipodi:namedview
     id="base"
     pagecolor="#ffffff"
     bordercolor="#666666"
     borderopacity="1.0"
     inkscape:pageopacity="0.0"
     inkscape:pageshadow="2"
     inkscape:zoom="1"
     inkscape:cx="79.212401"
     inkscape:cy="-24.169178"
     inkscape:document-units="mm"
     inkscape:current-layer="layer1"
     showgrid="false"
     inkscape:window-width="1920"
     inkscape:window-height="1023"
     inkscape:window-x="0"
     inkscape:window-y="28"
     inkscape:window-maximized="1" />
  <metadata
     id="metadata101">
    <rdf:RDF>
      <cc:Work
         rdf:about="">
        <dc:format>image/svg+xml</dc:format>
        <dc:type
           rdf:resource="http://purl.org/dc/dcmitype/StillImage" />
        <dc:title></dc:title>
      </cc:Work>
    </rdf:RDF>
  </metadata>
  <g
     inkscape:label="Layer 1"
     inkscape:groupmode="layer"
     id="layer1"
     transform="translate(-75.235246,-95.016662)">
    <g
       style="fill:#000000;fill-opacity:1"
       id="g5381"
       transform="matrix(4.2672667,0,0,4.2672667,-197.35889,-498.3405)">
      <path
         sodipodi:nodetypes="ccccccccccccccccccccc"
         id="rect5269-8-72-6"
         d="m 64.913795,139.04853 v 2.06706 h 3.100586 v -2.06706 z m 4.134115,5.16764 z m 0,0 h -1.033529 v -2.06705 h -3.100586 v 2.06705 h -1.033528 l 2.58382,1.48828 z m -4.134115,1.78801 v 3.37964 h 3.100586 v -3.37964 l -1.550294,0.894 z"
         style="opacity:1;fill:#000000;fill-opacity:1;stroke-width:0.26458332"
         inkscape:connector-curvature="0" />
      <path
         sodipodi:nodetypes="sccscscsccccccscssssccscscsccssscs"
         d="m 70.145367,146.79994 v 2.58381 h -1.033529 v -2.58381 c 0,-0.71314 0.251492,-1.3212 0.754476,-1.82418 0.506429,-0.50643 1.116211,-0.75965 1.829346,-0.75965 0.713135,0 1.321194,0.25322 1.824179,0.75965 0.506428,0.50298 0.759642,1.11104 0.759642,1.82418 v 2.58381 h -1.033528 v -1.03352 h -3.125391 v -1.03353 h 3.125391 v -0.51676 c 0,-0.4272 -0.151585,-0.79238 -0.454753,-1.09554 -0.303168,-0.30317 -0.668348,-0.45476 -1.09554,-0.45476 -0.427192,0 -0.792372,0.15159 -1.09554,0.45476 -0.303169,0.30316 -0.454753,0.66834 -0.454753,1.09554 z m -1.033531,-5.16759 v -2.58382 h 1.033529 v 2.58382 c 0,0.42719 0.151584,0.79237 0.454752,1.09554 0.303169,0.30317 0.668349,0.45475 1.095541,0.45475 0.427191,0 0.792371,-0.15158 1.09554,-0.45475 0.303168,-0.30317 0.454752,-0.66835 0.454752,-1.09554 v -2.58382 h 1.033529 v 2.58382 c 0,0.71314 -0.253214,1.32292 -0.759643,1.82935 -0.502984,0.50298 -1.111043,0.75447 -1.824178,0.75447 -0.713135,0 -1.322917,-0.25149 -1.829346,-0.75447 -0.502984,-0.50643 -0.754476,-1.11621 -0.754476,-1.82935 z"
         style="font-style:normal;font-variant:normal;font-weight:normal;font-stretch:normal;font-size:40px;line-height:1.25;font-family:Onomber;-inkscape-font-specification:Onomber;letter-spacing:0px;word-spacing:0px;fill:#000000;fill-opacity:1;stroke:none;stroke-width:0.26458332"
         id="path4656-8-9-4-4-2-1"
         inkscape:connector-curvature="0" />
    </g>
  </g>
</svg>
